<svg width="355" height="188" viewBox="0 0 355 188" fill="none" xmlns="http://www.w3.org/2000/svg">
<path d="M19.0904 23.0208C18.3405 24.1321 17.3032 24.9449 15.9775 25.4583C14.6508 25.9725 13.1335 26.2283 11.4217 26.2283C10.2672 26.2283 9.21761 26.0471 8.27813 25.6833C7.33558 25.3188 6.58765 24.784 6.0313 24.0792C5.47494 23.3734 5.19778 22.5074 5.19778 21.4819C5.19778 20.2851 5.47494 19.2582 6.0313 18.4027C6.58765 17.5472 7.43238 16.8841 8.56753 16.4145C9.69959 15.9449 11.1211 15.7086 12.8329 15.7086C14.714 15.7086 16.4044 15.9561 17.9023 16.446C18.6778 16.7008 19.4471 17.0359 20.2113 17.433V18.5951C20.2113 20.4347 19.8373 21.9085 19.0904 23.0208ZM19.924 1.05379C18.2325 0.347937 16.2557 -0.00565147 13.9884 -0.00565147C11.3361 -0.00565147 9.06783 0.401905 7.18681 1.21362C5.30374 2.02637 3.80689 2.83939 2.69619 3.6511L5.19778 7.56442C5.66651 7.22102 6.32171 6.80459 7.15421 6.31256C7.98772 5.82157 8.98326 5.39368 10.1388 5.02916C11.2933 4.6675 12.5772 4.48418 13.9884 4.48418C15.6137 4.48418 17.0576 4.8602 18.3191 5.60672C19.5806 6.35637 20.2113 7.47786 20.2113 8.97403V13.923C19.4562 13.419 18.5555 12.9473 17.4224 12.5338C16.0743 12.0438 14.4582 11.7964 12.5772 11.7964C10.0104 11.7964 7.78496 12.1927 5.9029 12.9841C4.02087 13.7755 2.56679 14.8969 1.53967 16.3493C0.513562 17.8048 0 19.5792 0 21.6743C0 23.6839 0.459557 25.3616 1.37969 26.7081C2.29778 28.0567 3.52973 29.071 5.06939 29.7565C6.60904 30.4389 8.29952 30.7812 10.1388 30.7812C12.192 30.7812 14.0526 30.4287 15.7217 29.7229C17.3898 29.0181 18.7267 27.9915 19.7314 26.6447C19.9148 26.3983 20.0625 26.1355 20.2113 25.8719V30.1406H25.3459V8.97403C25.3459 7.04997 24.8639 5.42549 23.901 4.10036C22.9401 2.77602 21.6124 1.75859 19.924 1.05379Z" fill="white"/>
<path d="M35.7383 30.1406H40.8709V5.44588H51.4599V0.637146H35.7383V30.1406Z" fill="white"/>
<path d="M59.8711 12.3098C60.0127 10.9521 60.4009 9.73985 61.0541 8.68486C61.8885 7.33835 63.0115 6.3024 64.4228 5.57413C65.8361 4.84899 67.3952 4.48418 69.107 4.48418C70.819 4.48418 72.2607 4.81743 73.4388 5.47738C74.6144 6.14151 75.5337 7.06118 76.1971 8.23664C76.8615 9.41313 77.277 10.7708 77.4494 12.3098H59.8711ZM76.4211 1.85427C74.3252 0.615713 71.8867 -0.00565147 69.107 -0.00565147C66.5819 -0.00565147 64.3046 0.50881 62.2749 1.53355C60.242 2.56116 58.584 3.9932 57.3001 5.83174C56.0182 7.67028 55.1624 9.8092 54.7343 12.2446C54.6487 12.758 54.5846 13.2722 54.5418 13.7856C54.498 14.2969 54.4766 14.8328 54.4766 15.3879C54.4766 18.3386 55.088 20.9797 56.3057 23.3092C57.5265 25.6395 59.1944 27.4679 61.3118 28.792C63.4284 30.1192 65.8126 30.7812 68.4661 30.7812C71.0308 30.7812 73.1706 30.4704 74.8826 29.8512C76.5933 29.2319 78.0465 28.355 79.2457 27.2212C80.443 26.0906 81.5334 24.7759 82.5187 23.2766L78.346 20.6475C77.7051 21.716 76.9358 22.648 76.0369 23.4375C75.1393 24.2289 74.1214 24.8482 72.9893 25.2974C71.8551 25.7464 70.5599 25.9725 69.107 25.9725C67.1821 25.9725 65.5131 25.5652 64.1037 24.7525C62.6904 23.9405 61.5993 22.7439 60.83 21.1609C60.2175 19.902 59.918 18.3652 59.7936 16.6711H82.9671C83.0088 16.4145 83.0302 16.1569 83.0302 15.9011C83.0302 15.6456 83.0302 15.3879 83.0302 15.1321C83.0302 12.0112 82.4535 9.32733 81.2989 7.0815C80.1436 4.83776 78.5182 3.09596 76.4211 1.85427Z" fill="white"/>
<path d="M112.996 12.1815H96.6316V0.637146H91.5V30.1406H96.6316V16.9921H112.996V30.1406H118.129V0.637146H112.996V12.1815Z" fill="white"/>
<path d="M124.672 5.44588H130.769V30.1406H135.901V5.44588H141.999V0.637146H124.672V5.44588Z" fill="white"/>
<path d="M159.963 -0.00565147C157.096 -0.00565147 154.508 0.657433 152.199 1.98256C149.888 3.30977 148.061 5.12589 146.712 7.43508C145.364 9.74401 144.691 12.3964 144.691 15.3879C144.691 18.3386 145.364 20.9797 146.712 23.3092C148.061 25.6395 149.888 27.4679 152.199 28.792C154.508 30.1192 157.096 30.7812 159.963 30.7812C161.973 30.7812 163.93 30.4491 165.834 29.7881C167.738 29.125 169.203 28.1951 170.229 26.9973V20.5844C169.802 21.5236 169.075 22.4128 168.048 23.2448C167.02 24.0792 165.813 24.7423 164.423 25.2323C163.031 25.7251 161.545 25.9725 159.963 25.9725C158.038 25.9725 156.316 25.5112 154.799 24.5924C153.279 23.6727 152.08 22.4229 151.205 20.8402C150.326 19.2582 149.888 17.4403 149.888 15.3879C149.888 13.3356 150.326 11.5093 151.205 9.90489C152.08 8.30077 153.279 7.04996 154.799 6.15273C156.316 5.25315 158.038 4.80517 159.963 4.80517C161.545 4.80517 163.031 5.05262 164.423 5.54257C165.813 6.03539 167.02 6.68726 168.048 7.49819C169.075 8.31198 169.802 9.20922 170.229 10.1933V3.77834C169.203 2.58359 167.738 1.65272 165.834 0.989632C163.93 0.326548 161.973 -0.00565147 159.963 -0.00565147Z" fill="white"/>
<path d="M175.168 5.44588H181.263V30.1406H186.397V5.44588H192.493V0.637146H175.168V5.44588Z" fill="white"/>
<path d="M214.854 24.4315C213.934 25.2443 212.512 25.6518 210.587 25.6518H204.17V17.4403H210.587C211.572 17.4403 212.416 17.5371 213.122 17.7295C213.827 17.9219 214.405 18.2093 214.854 18.5952C215.304 18.9803 215.645 19.4082 215.88 19.8776C216.115 20.3482 216.234 20.883 216.234 21.4819C216.234 22.6368 215.774 23.6198 214.854 24.4315ZM209.947 5.12593C211.487 5.12593 212.704 5.47742 213.603 6.18431C214.502 6.89016 214.95 7.82 214.95 8.97408C214.95 9.53025 214.833 10.0546 214.597 10.5446C214.362 11.0376 214.03 11.4757 213.603 11.8606C213.175 12.2446 212.65 12.5338 212.032 12.7265C211.411 12.9179 210.716 13.0167 209.947 13.0167H204.17V5.12593H209.947ZM216.105 15.388C215.777 15.3014 215.399 15.2626 215.053 15.1935C216.537 14.6587 217.747 13.8621 218.671 12.7896C219.613 11.7007 220.084 10.3206 220.084 8.65309C220.084 6.72928 219.613 5.17991 218.671 4.00446C217.73 2.82822 216.501 1.97244 214.982 1.4379C213.464 0.904148 211.784 0.637146 209.947 0.637146H204.17H202.053H199.039V30.1406H202.053H204.17H211.871C215.249 30.1406 217.678 29.3605 219.155 27.7988C220.631 26.2396 221.368 24.3481 221.368 22.1236C221.368 20.1996 220.897 18.7031 219.955 17.6328C219.014 16.5642 217.73 15.8156 216.105 15.388Z" fill="white"/>
<path d="M250.981 20.8402C250.102 22.4229 248.905 23.6727 247.387 24.5924C245.867 25.5112 244.146 25.9725 242.221 25.9725C240.297 25.9725 238.572 25.5112 237.056 24.5924C235.536 23.6727 234.339 22.4229 233.462 20.8402C232.584 19.2582 232.147 17.4403 232.147 15.3879C232.147 13.3356 232.584 11.5093 233.462 9.90489C234.339 8.30077 235.536 7.04996 237.056 6.15273C238.572 5.25315 240.297 4.80517 242.221 4.80517C244.146 4.80517 245.867 5.25315 247.387 6.15273C248.905 7.04996 250.102 8.30077 250.981 9.90489C251.855 11.5093 252.295 13.3356 252.295 15.3879C252.295 17.4403 251.855 19.2582 250.981 20.8402ZM255.471 7.43508C254.124 5.12589 252.303 3.30977 250.018 1.98256C247.728 0.657433 245.129 -0.00565147 242.221 -0.00565147C239.354 -0.00565147 236.767 0.657433 234.456 1.98256C232.147 3.30977 230.318 5.12589 228.971 7.43508C227.624 9.74401 226.949 12.3964 226.949 15.3879C226.949 18.3386 227.624 20.9797 228.971 23.3092C230.318 25.6395 232.147 27.4679 234.456 28.792C236.767 30.1192 239.354 30.7812 242.221 30.7812C245.129 30.7812 247.728 30.1192 250.018 28.792C252.303 27.4679 254.124 25.6395 255.471 23.3092C256.819 20.9797 257.493 18.3386 257.493 15.3879C257.493 12.3964 256.819 9.74401 255.471 7.43508Z" fill="white"/>
<path d="M25.0245 72.5124H18.6071L7.69896 82.8699V72.5124H2.56641V102.016H7.69896V87.0583L19.891 102.016H26.3083L12.1916 84.6982L25.0245 72.5124Z" fill="white"/>
<path d="M55.4718 93.0346C54.5518 94.6163 53.332 95.8142 51.8138 96.6259C50.2967 97.4387 48.6162 97.8462 46.778 97.8462C45.2791 97.8462 43.8026 97.4387 42.3497 96.6259C40.8956 95.8142 39.6983 94.6163 38.7566 93.0346C37.8152 91.4527 37.3443 89.5296 37.3443 87.2624C37.3443 84.9952 37.8152 83.0722 38.7566 81.4902C39.6983 79.9096 40.8956 78.7107 42.3497 77.8989C43.8026 77.0862 45.2791 76.6786 46.778 76.6786C48.6162 76.6786 50.2967 77.0862 51.8138 77.8989C53.332 78.7107 54.5518 79.9096 55.4718 81.4902C56.3911 83.0722 56.8507 84.9952 56.8507 87.2624C56.8507 89.5296 56.3911 91.4527 55.4718 93.0346ZM54.7657 73.728C52.5627 72.4905 50.113 71.8691 47.4189 71.8691C44.9817 71.8691 42.8315 72.4905 40.97 73.728C39.5066 74.7048 38.3053 76.0155 37.3443 77.6382V72.5108H32.2109V116.125H37.3443V96.8663C38.3053 98.5031 39.5066 99.8211 40.97 100.795C42.8315 102.034 44.9817 102.655 47.4189 102.655C50.113 102.655 52.5627 102.034 54.7657 100.795C56.9678 99.5573 58.7325 97.7821 60.0592 95.4711C61.3849 93.1629 62.0493 90.4271 62.0493 87.2624C62.0493 84.055 61.3849 81.3069 60.0592 79.0204C58.7325 76.7337 56.9678 74.9705 54.7657 73.728Z" fill="white"/>
<path d="M73.3476 84.1848C73.4893 82.8292 73.8774 81.6172 74.5306 80.5609C75.3651 79.2144 76.4881 78.1795 77.8993 77.4491C79.3127 76.724 80.8718 76.3615 82.5835 76.3615C84.2955 76.3615 85.7373 76.6914 86.9153 77.3545C88.0892 78.0176 89.0103 78.9364 89.6736 80.1116C90.338 81.2881 90.7538 82.6459 90.925 84.1848H73.3476ZM89.8977 73.7295C87.8017 72.492 85.3632 71.8707 82.5835 71.8707C80.0587 71.8707 77.7812 72.3841 75.7514 73.4096C73.7186 74.4364 72.0606 75.8685 70.7769 77.708C69.493 79.5453 68.6368 81.6845 68.209 84.1206C68.1253 84.633 68.0601 85.1475 68.0173 85.6609C67.9735 86.173 67.9531 86.7078 67.9531 87.264C67.9531 90.2138 68.5646 92.8547 69.7823 95.1853C71.001 97.5148 72.6699 99.3429 74.7884 100.669C76.905 101.995 79.2892 102.656 81.9426 102.656C84.5074 102.656 86.6472 102.346 88.3592 101.726C90.0691 101.107 91.5231 100.231 92.7223 99.0965C93.9196 97.9659 95.0079 96.6499 95.9942 95.1516L91.8226 92.5238C91.1816 93.5924 90.4124 94.5232 89.5137 95.3125C88.6159 96.1039 87.598 96.7242 86.4638 97.1724C85.3317 97.6238 84.0368 97.8478 82.5835 97.8478C80.6587 97.8478 78.9897 97.4402 77.5785 96.6275C76.1672 95.8158 75.0758 94.6179 74.3066 93.0362C73.693 91.7783 73.3936 90.2402 73.2681 88.5463H96.4436C96.4843 88.2898 96.5078 88.034 96.5078 87.7763C96.5078 87.5206 96.5078 87.264 96.5078 87.0074C96.5078 83.8865 95.93 81.2026 94.7757 78.9568C93.6201 76.7128 91.9947 74.972 89.8977 73.7295Z" fill="white"/>
<path d="M121.175 94.8961C120.425 96.0071 119.388 96.8199 118.063 97.3333C116.737 97.8478 115.218 98.1033 113.507 98.1033C112.352 98.1033 111.303 97.9221 110.364 97.5586C109.421 97.1959 108.673 96.659 108.117 95.9553C107.561 95.2484 107.282 94.3827 107.282 93.3569C107.282 92.1601 107.561 91.1356 108.117 90.2798C108.673 89.4243 109.517 88.7602 110.652 88.2898C111.785 87.8202 113.207 87.5839 114.919 87.5839C116.8 87.5839 118.489 87.8314 119.988 88.3213C120.764 88.5768 121.533 88.9109 122.297 89.3093V90.4714C122.297 92.31 121.923 93.7848 121.175 94.8961ZM122.01 72.9288C120.318 72.224 118.34 71.8707 116.074 71.8707C113.422 71.8707 111.154 72.2769 109.273 73.0889C107.389 73.9006 105.892 74.7144 104.781 75.5261L107.282 79.4394C107.753 79.0973 108.407 78.6806 109.241 78.1876C110.074 77.6968 111.068 77.2689 112.225 76.9044C113.379 76.5428 114.663 76.3615 116.074 76.3615C117.7 76.3615 119.143 76.7352 120.405 77.4817C121.665 78.2314 122.297 79.3529 122.297 80.849V85.7973C121.542 85.294 120.64 84.8226 119.507 84.409C118.159 83.9191 116.544 83.6716 114.663 83.6716C112.096 83.6716 109.87 84.0677 107.989 84.8591C106.108 85.6507 104.652 86.7719 103.627 88.2256C102.598 89.6801 102.086 91.4542 102.086 93.5496C102.086 95.5592 102.546 97.2366 103.466 98.5841C104.384 99.9317 105.615 100.947 107.155 101.632C108.696 102.314 110.384 102.656 112.225 102.656C114.278 102.656 116.138 102.304 117.806 101.599C119.475 100.893 120.813 99.8675 121.817 98.5189C121.999 98.2736 122.147 98.0107 122.297 97.7469V102.016H127.431V80.849C127.431 78.9252 126.951 77.3005 125.988 75.9764C125.026 74.6513 123.698 73.6338 122.01 72.9288Z" fill="white"/>
<path d="M133.012 77.3219H139.108V102.016H144.24V77.3219H150.337V72.5124H133.012V77.3219Z" fill="white"/>
<path d="M162.336 72.5115H157.203V104.26L176.774 82.8956V102.015H181.905V70.2657L162.336 91.6296V72.5115Z" fill="white"/>
<path d="M206.473 96.3078C205.552 97.1206 204.131 97.5268 202.206 97.5268H195.79V89.3153H202.206C203.19 89.3153 204.035 89.4121 204.739 89.6048C205.447 89.7972 206.024 90.0843 206.473 90.4715C206.923 90.8563 207.264 91.2842 207.5 91.7528C207.734 92.2235 207.854 92.758 207.854 93.3569C207.854 94.5121 207.393 95.4959 206.473 96.3078ZM201.564 77.0012C203.106 77.0012 204.324 77.3545 205.223 78.0604C206.119 78.7652 206.57 79.6953 206.57 80.8491C206.57 81.4052 206.452 81.9309 206.216 82.4219C205.981 82.9129 205.649 83.3517 205.223 83.7369C204.794 84.1207 204.269 84.4091 203.651 84.6015C203.029 84.7929 202.334 84.8917 201.564 84.8917H195.79V77.0012H201.564ZM207.724 87.264C207.396 87.1785 207.019 87.1389 206.672 87.0685C208.155 86.5337 209.366 85.7381 210.291 84.6656C211.231 83.576 211.702 82.1977 211.702 80.5294C211.702 78.6043 211.231 77.0562 210.291 75.8797C209.349 74.7032 208.12 73.8487 206.601 73.3129C205.083 72.7791 203.404 72.5124 201.564 72.5124H195.79H193.671H190.656V102.016H193.671H195.79H203.49C206.868 102.016 209.296 101.235 210.772 99.6762C212.248 98.1146 212.986 96.2231 212.986 93.9986C212.986 92.0746 212.515 90.5784 211.574 89.508C210.633 88.4395 209.349 87.6909 207.724 87.264Z" fill="white"/>
<path d="M242.63 84.0565H226.265V72.5124H221.133V102.016H226.265V88.8671H242.63V102.016H247.762V72.5124H242.63V84.0565Z" fill="white"/>
<path d="M285.422 102.016H290.556V72.5124H285.422V102.016Z" fill="white"/>
<path d="M275.994 95.3777C275.566 96.0825 274.935 96.6184 274.1 96.98C273.265 97.3446 272.227 97.5268 270.988 97.5268H263.929V88.1613H270.988C272.869 88.1613 274.283 88.5678 275.224 89.3805C276.163 90.1933 276.636 91.3473 276.636 92.8435C276.636 93.8276 276.419 94.6719 275.994 95.3777ZM278.657 85.8839C276.581 84.4091 274.024 83.6717 270.988 83.6717H263.929V72.5124H258.797V102.016H261.811H263.929H270.988C273.041 102.016 274.88 101.695 276.505 101.053C278.13 100.411 279.414 99.4071 280.358 98.0392C281.294 96.6713 281.767 94.9399 281.767 92.8435C281.767 89.6801 280.731 87.3597 278.657 85.8839Z" fill="white"/>
<path d="M313.014 86.8147L323.089 72.5124H317.313L310.255 82.7742L303.198 72.5124H297.423L307.497 86.8147L296.781 102.016H302.557L310.255 90.8564L317.958 102.016H323.73L313.014 86.8147Z" fill="white"/>
<path d="M8.3435 144.384H3.21094V176.133L22.7813 154.769V173.888H27.9128V142.139L8.3435 163.503V144.384Z" fill="white"/>
<path d="M60.7647 155.931H44.4011V144.385H39.2695V173.889H44.4011V160.74H60.7647V173.889H65.8962V144.385H60.7647V155.931Z" fill="white"/>
<path d="M91.3363 153.238L98.6617 169.079H84.0089L91.3363 153.238ZM91.3363 142.14L78.2956 169.079H73.0469V179.662H78.5014V173.889H104.49V179.662H109.623V169.079H104.374L91.3363 142.14Z" fill="white"/>
<path d="M126.305 164.716L118.056 144.386H111.961L123.252 169.721L115.17 188H120.943L140.194 144.386H134.418L126.305 164.716Z" fill="white"/>
<path d="M157.833 143.744C154.968 143.744 152.379 144.408 150.07 145.732C147.76 147.059 145.931 148.875 144.584 151.184C143.236 153.494 142.562 156.145 142.562 159.139C142.562 162.087 143.236 164.729 144.584 167.059C145.931 169.39 147.76 171.217 150.07 172.543C152.379 173.869 154.968 174.531 157.833 174.531C159.844 174.531 161.802 174.199 163.706 173.537C165.608 172.875 167.075 171.945 168.101 170.746V164.335C167.673 165.274 166.947 166.161 165.919 166.995C164.892 167.829 163.684 168.492 162.294 168.983C160.903 169.474 159.417 169.722 157.833 169.722C155.909 169.722 154.188 169.261 152.67 168.343C151.15 167.423 149.951 166.173 149.076 164.59C148.198 163.009 147.76 161.191 147.76 159.139C147.76 157.086 148.198 155.258 149.076 153.655C149.951 152.051 151.15 150.799 152.67 149.903C154.188 149.004 155.909 148.556 157.833 148.556C159.417 148.556 160.903 148.802 162.294 149.292C163.684 149.785 164.892 150.437 165.919 151.248C166.947 152.062 167.673 152.959 168.101 153.942V147.528C167.075 146.333 165.608 145.402 163.706 144.739C161.802 144.076 159.844 143.744 157.833 143.744Z" fill="white"/>
<path d="M173.043 149.195H179.14V173.889H184.272V149.195H190.37V144.385H173.043V149.195Z" fill="white"/>
<path d="M219.851 164.909C218.931 166.493 217.711 167.69 216.194 168.502C214.676 169.315 212.995 169.721 211.157 169.721C209.659 169.721 208.183 169.315 206.729 168.502C205.275 167.69 204.077 166.493 203.136 164.909C202.195 163.33 201.724 161.405 201.724 159.138C201.724 156.87 202.195 154.947 203.136 153.365C204.077 151.784 205.275 150.586 206.729 149.774C208.183 148.961 209.659 148.556 211.157 148.556C212.995 148.556 214.676 148.961 216.194 149.774C217.711 150.586 218.931 151.784 219.851 153.365C220.77 154.947 221.23 156.87 221.23 159.138C221.23 161.405 220.77 163.33 219.851 164.909ZM219.146 145.604C216.942 144.365 214.493 143.744 211.798 143.744C209.362 143.744 207.211 144.365 205.349 145.604C203.886 146.58 202.684 147.891 201.724 149.513V144.386H196.59V188H201.724V168.741C202.684 170.379 203.886 171.697 205.349 172.671C207.211 173.91 209.362 174.531 211.798 174.531C214.493 174.531 216.942 173.91 219.146 172.671C221.347 171.431 223.113 169.657 224.439 167.346C225.764 165.038 226.428 162.302 226.428 159.138C226.428 155.931 225.764 153.183 224.439 150.895C223.113 148.609 221.347 146.845 219.146 145.604Z" fill="white"/>
<path d="M240.352 144.384H235.219V176.133L254.789 154.769V173.888H259.922V142.139L240.352 163.503V144.384Z" fill="white"/>
<path d="M276.735 163.505V144.386H271.602V176.135L291.171 154.771V173.89H296.302V142.141L276.735 163.505Z" fill="white"/>
<path d="M278.5 136.977C280.018 137.853 281.891 138.291 284.116 138.291C286.38 138.291 288.261 137.853 289.761 136.977C291.258 136.101 292.38 134.968 293.131 133.578C293.877 132.189 294.253 130.767 294.253 129.312H289.696C289.696 129.87 289.547 130.521 289.247 131.267C288.95 132.017 288.391 132.679 287.58 133.258C286.766 133.834 285.611 134.123 284.116 134.123C282.616 134.123 281.461 133.834 280.649 133.258C279.838 132.679 279.28 132.017 278.982 131.267C278.682 130.521 278.531 129.87 278.531 129.312H273.977C273.977 130.767 274.35 132.189 275.101 133.578C275.847 134.968 276.982 136.101 278.5 136.977Z" fill="white"/>
<path d="M321.004 159.137C321.004 168.523 328.618 176.133 338.007 176.133C347.397 176.133 355.012 168.523 355.012 159.137C355.012 149.749 347.397 142.14 338.007 142.14C328.618 142.14 321.004 149.749 321.004 159.137Z" fill="#EF3065"/>
</svg>
